<mxfile host="app.diagrams.net" agent="Mozilla/5.0 (Macintosh; Intel Mac OS X 10_15_7) AppleWebKit/537.36 (KHTML, like Gecko) Chrome/135.0.0.0 Safari/537.36 Edg/135.0.0.0" version="26.2.14">
  <diagram name="第 1 页" id="QpfjEX_jY2Dej7yGT_T-">
    <mxGraphModel dx="1418" dy="706" grid="1" gridSize="10" guides="1" tooltips="1" connect="1" arrows="1" fold="1" page="1" pageScale="1" pageWidth="827" pageHeight="1169" math="0" shadow="0">
      <root>
        <mxCell id="0" />
        <mxCell id="1" parent="0" />
        <mxCell id="iCar0HImB6kbNskHJHT8-1" value="Agent" style="ellipse;whiteSpace=wrap;html=1;" vertex="1" parent="1">
          <mxGeometry x="70" y="160" width="90" height="50" as="geometry" />
        </mxCell>
        <mxCell id="iCar0HImB6kbNskHJHT8-3" value="SingleTon" style="text;html=1;align=center;verticalAlign=middle;whiteSpace=wrap;rounded=0;" vertex="1" parent="1">
          <mxGeometry x="60" y="120" width="60" height="30" as="geometry" />
        </mxCell>
        <mxCell id="iCar0HImB6kbNskHJHT8-4" value="RuntimeData" style="ellipse;whiteSpace=wrap;html=1;" vertex="1" parent="1">
          <mxGeometry x="240" y="157.5" width="80" height="55" as="geometry" />
        </mxCell>
        <mxCell id="iCar0HImB6kbNskHJHT8-5" value="" style="endArrow=none;html=1;rounded=0;entryX=0;entryY=0.5;entryDx=0;entryDy=0;exitX=1;exitY=0.5;exitDx=0;exitDy=0;" edge="1" parent="1" source="iCar0HImB6kbNskHJHT8-1" target="iCar0HImB6kbNskHJHT8-4">
          <mxGeometry width="50" height="50" relative="1" as="geometry">
            <mxPoint x="160" y="190" as="sourcePoint" />
            <mxPoint x="210" y="140" as="targetPoint" />
          </mxGeometry>
        </mxCell>
        <mxCell id="iCar0HImB6kbNskHJHT8-6" value="" style="endArrow=none;html=1;rounded=0;entryX=0;entryY=0.5;entryDx=0;entryDy=0;exitX=1;exitY=0.5;exitDx=0;exitDy=0;" edge="1" parent="1" source="iCar0HImB6kbNskHJHT8-4" target="iCar0HImB6kbNskHJHT8-7">
          <mxGeometry width="50" height="50" relative="1" as="geometry">
            <mxPoint x="390" y="180" as="sourcePoint" />
            <mxPoint x="440" y="130" as="targetPoint" />
          </mxGeometry>
        </mxCell>
        <mxCell id="iCar0HImB6kbNskHJHT8-7" value="ExecutionDataStore" style="ellipse;whiteSpace=wrap;html=1;" vertex="1" parent="1">
          <mxGeometry x="370" y="157.5" width="120" height="55" as="geometry" />
        </mxCell>
        <mxCell id="iCar0HImB6kbNskHJHT8-8" value="" style="endArrow=none;html=1;rounded=0;exitX=1;exitY=0.5;exitDx=0;exitDy=0;entryX=0;entryY=0.5;entryDx=0;entryDy=0;" edge="1" parent="1" source="iCar0HImB6kbNskHJHT8-9" target="iCar0HImB6kbNskHJHT8-10">
          <mxGeometry width="50" height="50" relative="1" as="geometry">
            <mxPoint x="610" y="54" as="sourcePoint" />
            <mxPoint x="730" y="54" as="targetPoint" />
          </mxGeometry>
        </mxCell>
        <mxCell id="iCar0HImB6kbNskHJHT8-9" value="ExecutionData" style="ellipse;whiteSpace=wrap;html=1;" vertex="1" parent="1">
          <mxGeometry x="550" y="55" width="100" height="45" as="geometry" />
        </mxCell>
        <mxCell id="iCar0HImB6kbNskHJHT8-10" value="被插桩类文件" style="ellipse;whiteSpace=wrap;html=1;" vertex="1" parent="1">
          <mxGeometry x="680" y="55" width="100" height="45" as="geometry" />
        </mxCell>
        <mxCell id="iCar0HImB6kbNskHJHT8-11" value="" style="endArrow=none;html=1;rounded=0;exitX=0.69;exitY=0.044;exitDx=0;exitDy=0;exitPerimeter=0;entryX=0;entryY=0.5;entryDx=0;entryDy=0;" edge="1" parent="1" source="iCar0HImB6kbNskHJHT8-9" target="iCar0HImB6kbNskHJHT8-12">
          <mxGeometry width="50" height="50" relative="1" as="geometry">
            <mxPoint x="640" y="50" as="sourcePoint" />
            <mxPoint x="690" as="targetPoint" />
          </mxGeometry>
        </mxCell>
        <mxCell id="iCar0HImB6kbNskHJHT8-12" value="boolean[] probes" style="ellipse;whiteSpace=wrap;html=1;" vertex="1" parent="1">
          <mxGeometry x="680" width="100" height="45" as="geometry" />
        </mxCell>
        <mxCell id="iCar0HImB6kbNskHJHT8-28" value="" style="endArrow=none;html=1;rounded=0;exitX=1;exitY=0.5;exitDx=0;exitDy=0;entryX=0;entryY=0.5;entryDx=0;entryDy=0;" edge="1" parent="1" source="iCar0HImB6kbNskHJHT8-29" target="iCar0HImB6kbNskHJHT8-30">
          <mxGeometry width="50" height="50" relative="1" as="geometry">
            <mxPoint x="610" y="304" as="sourcePoint" />
            <mxPoint x="730" y="304" as="targetPoint" />
          </mxGeometry>
        </mxCell>
        <mxCell id="iCar0HImB6kbNskHJHT8-29" value="ExecutionData" style="ellipse;whiteSpace=wrap;html=1;" vertex="1" parent="1">
          <mxGeometry x="550" y="305" width="100" height="45" as="geometry" />
        </mxCell>
        <mxCell id="iCar0HImB6kbNskHJHT8-30" value="被插桩类文件" style="ellipse;whiteSpace=wrap;html=1;" vertex="1" parent="1">
          <mxGeometry x="680" y="305" width="100" height="45" as="geometry" />
        </mxCell>
        <mxCell id="iCar0HImB6kbNskHJHT8-31" value="" style="endArrow=none;html=1;rounded=0;exitX=0.69;exitY=0.044;exitDx=0;exitDy=0;exitPerimeter=0;entryX=0;entryY=0.5;entryDx=0;entryDy=0;" edge="1" parent="1" source="iCar0HImB6kbNskHJHT8-29" target="iCar0HImB6kbNskHJHT8-32">
          <mxGeometry width="50" height="50" relative="1" as="geometry">
            <mxPoint x="640" y="300" as="sourcePoint" />
            <mxPoint x="690" y="250" as="targetPoint" />
          </mxGeometry>
        </mxCell>
        <mxCell id="iCar0HImB6kbNskHJHT8-32" value="boolean[] probes" style="ellipse;whiteSpace=wrap;html=1;" vertex="1" parent="1">
          <mxGeometry x="680" y="250" width="100" height="45" as="geometry" />
        </mxCell>
        <mxCell id="iCar0HImB6kbNskHJHT8-33" value="" style="endArrow=none;html=1;rounded=0;exitX=1;exitY=0.5;exitDx=0;exitDy=0;entryX=0;entryY=0.5;entryDx=0;entryDy=0;" edge="1" parent="1" source="iCar0HImB6kbNskHJHT8-34" target="iCar0HImB6kbNskHJHT8-35">
          <mxGeometry width="50" height="50" relative="1" as="geometry">
            <mxPoint x="610" y="184" as="sourcePoint" />
            <mxPoint x="730" y="184" as="targetPoint" />
          </mxGeometry>
        </mxCell>
        <mxCell id="iCar0HImB6kbNskHJHT8-34" value="ExecutionData" style="ellipse;whiteSpace=wrap;html=1;" vertex="1" parent="1">
          <mxGeometry x="550" y="185" width="100" height="45" as="geometry" />
        </mxCell>
        <mxCell id="iCar0HImB6kbNskHJHT8-35" value="被插桩类文件" style="ellipse;whiteSpace=wrap;html=1;" vertex="1" parent="1">
          <mxGeometry x="680" y="185" width="100" height="45" as="geometry" />
        </mxCell>
        <mxCell id="iCar0HImB6kbNskHJHT8-36" value="" style="endArrow=none;html=1;rounded=0;exitX=0.69;exitY=0.044;exitDx=0;exitDy=0;exitPerimeter=0;entryX=0;entryY=0.5;entryDx=0;entryDy=0;" edge="1" parent="1" source="iCar0HImB6kbNskHJHT8-34" target="iCar0HImB6kbNskHJHT8-37">
          <mxGeometry width="50" height="50" relative="1" as="geometry">
            <mxPoint x="640" y="180" as="sourcePoint" />
            <mxPoint x="690" y="130" as="targetPoint" />
          </mxGeometry>
        </mxCell>
        <mxCell id="iCar0HImB6kbNskHJHT8-37" value="boolean[] probes" style="ellipse;whiteSpace=wrap;html=1;" vertex="1" parent="1">
          <mxGeometry x="680" y="130" width="100" height="45" as="geometry" />
        </mxCell>
        <mxCell id="iCar0HImB6kbNskHJHT8-38" value="" style="endArrow=none;html=1;rounded=0;entryX=0;entryY=0.5;entryDx=0;entryDy=0;exitX=1;exitY=0.5;exitDx=0;exitDy=0;" edge="1" parent="1" source="iCar0HImB6kbNskHJHT8-7" target="iCar0HImB6kbNskHJHT8-9">
          <mxGeometry width="50" height="50" relative="1" as="geometry">
            <mxPoint x="500" y="160" as="sourcePoint" />
            <mxPoint x="550" y="110" as="targetPoint" />
          </mxGeometry>
        </mxCell>
        <mxCell id="iCar0HImB6kbNskHJHT8-39" value="" style="endArrow=none;html=1;rounded=0;entryX=0;entryY=0.5;entryDx=0;entryDy=0;exitX=1;exitY=0.5;exitDx=0;exitDy=0;" edge="1" parent="1" source="iCar0HImB6kbNskHJHT8-7" target="iCar0HImB6kbNskHJHT8-34">
          <mxGeometry width="50" height="50" relative="1" as="geometry">
            <mxPoint x="520" y="180" as="sourcePoint" />
            <mxPoint x="570" y="130" as="targetPoint" />
          </mxGeometry>
        </mxCell>
        <mxCell id="iCar0HImB6kbNskHJHT8-40" value="" style="endArrow=none;html=1;rounded=0;entryX=1;entryY=0.5;entryDx=0;entryDy=0;exitX=0;exitY=0.5;exitDx=0;exitDy=0;" edge="1" parent="1" source="iCar0HImB6kbNskHJHT8-29" target="iCar0HImB6kbNskHJHT8-7">
          <mxGeometry width="50" height="50" relative="1" as="geometry">
            <mxPoint x="420" y="290" as="sourcePoint" />
            <mxPoint x="470" y="240" as="targetPoint" />
          </mxGeometry>
        </mxCell>
      </root>
    </mxGraphModel>
  </diagram>
</mxfile>
